<svg version="1.1" xmlns="http://www.w3.org/2000/svg" xmlns:xlink="http://www.w3.org/1999/xlink" width="512.000000pt" height="512.000000pt" viewBox="0,0,256,256"><g fill="#837e9f" fill-rule="nonzero" stroke="none" stroke-width="1" stroke-linecap="butt" stroke-linejoin="miter" stroke-miterlimit="10" stroke-dasharray="" stroke-dashoffset="0" font-family="none" font-weight="none" font-size="none" text-anchor="none" style="mix-blend-mode: normal"><g transform="translate(-0.01757,-0.02337) scale(0.5,0.5)"><g transform="translate(0,512) scale(0.1,-0.1)"><path d="M3245,4507c-50,-20 -89,-47 -116,-83c-14,-18 -376,-811 -804,-1761c-714,-1585 -779,-1733 -783,-1791c-13,-188 159,-318 339,-257c105,36 54,-67 911,1836c715,1587 782,1739 786,1797c8,111 -45,203 -143,248c-55,26 -139,31 -190,11z"></path><path d="M1085,3729c-51,-25 -1016,-986 -1053,-1049c-23,-38 -27,-56 -27,-120c0,-53 6,-85 19,-110c10,-19 241,-259 515,-534c545,-547 543,-546 657,-546c112,0 216,77 245,183c14,51 6,133 -16,178c-9,19 -195,213 -413,432l-397,397l397,398c218,218 404,412 413,431c60,119 7,272 -114,334c-69,34 -164,37 -226,6z"></path><path d="M3860,3661c-119,-39 -198,-149 -188,-264c8,-99 24,-118 438,-532l390,-390l-399,-400c-371,-372 -400,-404 -416,-454c-41,-126 11,-252 129,-314c55,-29 164,-30 221,-3c55,26 1035,1006 1061,1061c28,59 26,166 -5,225c-33,64 -976,1008 -1043,1045c-53,29 -142,41 -188,26z"></path></g></g></g></svg>